<svg width="39" height="23" viewBox="0 0 39 23" fill="none" xmlns="http://www.w3.org/2000/svg">
<path d="M20.699 21.8427L38.2884 3.03387C38.582 2.72004 38.7458 2.30308 38.7458 1.8695C38.7458 1.43591 38.582 1.01896 38.2884 0.705122L38.2685 0.68487C38.1262 0.532202 37.9548 0.410637 37.7649 0.327564C37.575 0.244494 37.3705 0.201655 37.1638 0.201655C36.9571 0.201655 36.7526 0.244494 36.5627 0.327564C36.3728 0.410637 36.2014 0.532202 36.0591 0.68487L19.4966 18.3969L2.94072 0.684873C2.79837 0.532205 2.62703 0.41064 2.43711 0.327567C2.2472 0.244497 2.04268 0.201658 1.836 0.201658C1.62933 0.201658 1.42481 0.244497 1.2349 0.327568C1.04498 0.41064 0.873632 0.532205 0.731283 0.684873L0.711409 0.705125C0.417772 1.01896 0.253965 1.43591 0.253965 1.8695C0.253966 2.30309 0.417772 2.72004 0.711409 3.03387L18.3008 21.8427C18.4555 22.0082 18.6415 22.1399 18.8476 22.2298C19.0538 22.3198 19.2757 22.3662 19.4999 22.3662C19.7242 22.3662 19.9461 22.3198 20.1522 22.2298C20.3583 22.1399 20.5444 22.0082 20.699 21.8427Z" fill="#FEDC28"/>
</svg>
