<svg width="91" height="15" viewBox="0 0 91 15" fill="none" xmlns="http://www.w3.org/2000/svg">
<path d="M0.942004 8.13093C1.35933 7.92675 2.0148 7.87809 2.53478 7.90447C2.69549 7.91277 2.67076 8.13773 2.78325 8.15287C3.0022 8.18243 3.18002 8.02982 3.39741 8.07561C3.4722 8.09115 3.47251 8.43774 3.54929 8.44651C3.98328 8.48868 4.31871 8.31396 4.72613 8.28244C6.7446 8.12431 8.6778 7.74801 10.6783 7.38262C11.3346 7.26265 12.1979 7.35164 12.8334 7.04746C12.9064 7.01195 12.7858 6.73878 12.7943 6.71144C12.9306 6.29126 13.0047 6.88705 13.1763 6.92386C13.8689 7.06526 14.5312 6.91996 15.0892 6.65639C15.3205 6.54494 14.9274 6.04252 15.257 6.29603C15.2797 6.31303 15.2968 6.63218 15.3725 6.64688C15.5437 6.67971 15.822 6.5491 15.9489 6.54154C16.1948 6.5283 16.2296 6.51593 16.445 6.46332C16.7401 6.39402 17.133 6.45219 17.4388 6.299C17.5024 6.26577 17.3322 5.97854 17.4251 5.89783C17.5178 5.81727 17.8089 5.76935 17.9248 5.8173C18.0404 5.86532 18.0631 6.1201 18.0948 6.17158C18.3583 6.60712 18.5222 5.86584 18.5615 5.8383C19.2595 5.36179 20.0376 5.5568 20.7587 5.36782C21.3185 5.22028 21.8712 4.94509 22.4066 4.82388C23.053 4.6785 23.609 4.71372 24.2234 4.52333C24.288 4.5037 24.1167 4.15833 24.1954 4.1336C25.0105 3.87667 25.8634 3.69806 26.7546 3.73049C26.8449 3.73385 26.8199 4.08253 26.9151 4.10506C27.0992 4.14652 27.3238 4.21716 27.5436 4.24714C28.02 4.31093 28.459 4.19385 28.4359 3.18482C28.7994 3.15291 29.247 3.10522 29.6298 3.3144C29.8768 3.44893 29.7605 3.84647 29.9753 3.63861C30.0238 3.59221 29.8795 3.30111 29.9578 3.25479C30.2895 3.05968 30.7011 3.07308 31.0242 2.8363C31.0894 2.7875 31.0101 2.5149 31.0199 2.46061C31.1062 2.01947 31.5375 2.62654 31.6096 2.66233C32.1603 2.92594 32.4784 2.71434 32.9271 2.63794C33.031 2.62051 32.8376 2.27 32.9354 2.23978C33.4432 2.0882 33.9906 2.02409 34.5268 2.10591C34.6465 2.12499 34.5954 2.46197 34.6552 2.48749C34.9168 2.59654 34.8713 1.98394 35.1214 2.07804C35.174 2.09716 35.19 2.37547 35.2036 2.40417C35.4148 2.85497 35.4292 2.16713 35.4628 2.14683C35.8811 1.87603 36.2696 2.53451 36.6854 2.37595C36.7353 2.35628 36.5708 2.02453 36.7146 1.9905C37.6726 1.76172 38.716 1.73787 39.7021 1.92194C39.8555 1.95009 39.775 2.22305 39.7876 2.25446C39.9896 2.74479 40.0225 2.05803 40.0683 2.02788C40.4337 1.80746 40.8412 2.3441 41.0317 1.51423C42.6782 1.65491 44.265 1.09803 45.9091 1.73566C45.9301 1.74295 45.9115 2.07959 45.9533 2.09268C46.4492 2.25443 46.3275 1.73945 46.6209 1.08628C46.6953 0.922237 46.9797 1.67788 47.0048 1.73308C47.095 1.93655 47.0374 2.43868 47.0661 2.47752C47.3023 2.782 47.186 1.13682 47.485 1.12159C47.4944 1.12388 47.4703 1.42892 47.4966 1.45784C47.5784 1.54869 47.6493 1.4245 47.7304 1.52517C47.905 1.74403 48.0038 2.46048 48.2194 2.15074C48.2331 2.13066 48.2473 2.10625 48.262 2.07711C48.2928 2.01511 48.1969 1.08315 48.4655 1.11497C48.5717 1.12839 49.0474 1.09112 49.1794 1.14621C49.3136 1.20103 49.2362 1.50605 49.2461 1.51869C49.618 1.90175 49.4906 2.07254 49.6934 2.65464C49.8964 3.23458 49.7885 1.83581 49.8544 1.67649C49.9201 1.51761 50.193 1.83578 50.2616 1.94751C50.3301 2.05927 50.2578 2.25378 50.3172 2.31621C50.7113 2.72401 50.4563 1.61435 50.5726 1.38716C50.8437 0.849502 51.1111 1.8801 51.3839 1.97225C51.4576 1.99714 51.3899 1.7626 51.4534 1.73817C51.7047 1.64461 51.8694 1.96351 52.1515 1.65634C52.1986 1.60624 52.4112 0.97367 52.5787 1.42726C52.6024 1.49268 52.5496 1.75363 52.6604 1.80812C52.8256 1.8899 53.1226 1.93721 53.2933 1.84535C53.4202 1.77736 53.2594 1.35512 53.4258 1.48274C53.4998 1.53975 53.3736 1.79345 53.5119 1.87973C53.6493 1.96599 53.9959 1.94483 54.1257 1.93251C54.2562 1.91996 54.1754 1.59828 54.1853 1.57617C54.2457 1.44939 54.4932 1.28622 54.5156 1.286C55.6377 1.21537 56.6853 1.73624 57.7732 1.53234C57.8585 1.51681 57.7942 1.17658 57.8072 1.1707C58.0978 1.02147 57.8854 1.93412 58.0965 2.23372C58.0526 1.54145 58.1762 1.66437 58.3813 1.58421C58.4801 1.54503 58.4205 1.27783 58.429 1.25018C58.5687 0.839707 58.6821 1.36405 58.7106 1.4712C58.8161 1.86537 58.9135 1.39531 58.9851 1.65879C59.0566 1.9203 58.9111 2.31277 59.1089 2.30401C59.1598 2.05492 59.0004 1.40951 59.1489 1.30162C59.7101 0.893298 60.7787 1.38395 61.2365 1.42991C61.6928 1.47569 61.8388 1.42786 62.1062 1.51371C62.588 1.66909 62.4049 1.19061 62.7 0.966443C62.9968 0.742369 62.8664 1.92769 62.9128 2.18152C62.9583 2.43526 63.0009 2.1729 63.055 2.31202C63.109 2.45111 62.9983 2.62552 63.1216 2.67644C63.2452 2.72728 63.5734 2.27081 63.6149 2.00429C63.7005 1.43965 63.5418 0.849942 63.8702 1.05395C63.8891 1.06607 63.832 1.37795 63.904 1.40857C64.4741 1.64156 65.0644 1.65033 65.6369 1.85702C65.7152 1.88594 65.6486 2.23275 65.6942 2.25349C66.1676 2.47074 65.9937 1.88854 66.249 1.23793C66.1974 2.10134 66.3469 2.628 66.7041 2.63036C66.9182 2.63212 66.8797 2.25551 67.0179 1.98887C67.0595 1.90849 67.2145 2.1662 67.2409 1.98878C67.328 1.40879 67.1806 0.761124 67.5513 1.01698C67.5675 1.02915 67.5182 1.34662 67.5741 1.36547C67.9384 1.48893 67.9808 0.882621 68.3704 0.807144C68.6815 0.74789 69.2253 1.11504 69.5799 1.17397C69.577 2.14417 69.9028 1.92094 70.0367 1.25166C70.2671 1.27841 70.5109 1.24006 70.7294 1.33216C70.8061 1.36356 70.7562 1.64454 70.7659 1.67488C70.9146 2.15076 71.0125 1.49985 71.0616 1.47428C71.5892 1.22569 72.024 1.719 72.5353 1.23765C72.5531 1.22032 72.5837 0.546423 72.7168 1.03873C72.7256 1.07267 72.5588 1.37899 72.7956 1.40313C73.0406 1.42734 73.4835 1.78982 73.8191 1.47894C73.8624 1.43849 73.9416 1.26035 74.0294 1.17278C74.0329 1.17248 74.0434 1.17325 74.0468 1.17302C74.1262 1.1001 74.2108 1.09275 74.2814 1.29095C74.3018 1.3495 74.2733 1.54216 74.3022 1.65044C74.3955 1.99551 74.4672 1.31587 74.5708 1.89725C74.6705 2.4785 74.9164 2.91799 75.2557 2.52696C75.2672 2.51563 75.3553 1.97774 75.4626 1.98893C75.6332 2.00724 75.8682 2.12559 76.0394 2.12636C76.1242 2.1266 76.0784 1.7901 76.0932 1.78434C76.668 1.61081 77.051 1.91951 77.6578 2.06486C77.7631 2.09202 78.1013 1.64343 78.3015 2.01019C78.5233 2.41176 78.246 4.05095 78.7924 3.67296C79.0171 3.52194 79.3434 1.44169 79.7101 2.53355C80.4729 2.28543 81.1696 2.85778 81.9365 2.49432C81.9715 2.47824 82.0967 1.89844 82.1764 1.90837C82.2944 1.92422 82.3532 2.19814 82.4394 2.2182C82.7928 2.30894 83.1289 2.08378 83.4723 2.12753C83.6034 2.14355 83.5482 2.42408 83.7068 2.44316C83.8632 2.46187 83.9751 2.09323 84.1819 2.27623C84.3401 2.41569 84.4866 3.17641 84.6991 3.26799C84.7175 2.52044 84.8649 2.53826 85.1263 2.34394C85.1765 2.30622 85.1261 2.04538 85.15 2.01411C85.2465 1.88108 85.3331 2.09765 85.4252 1.95244C85.4475 1.91757 85.4507 1.66224 85.469 1.61931C85.6244 1.24465 85.8718 1.82018 85.9155 1.92026C86.0801 2.30056 86.1592 1.96845 86.2866 2.11787C86.4147 2.26718 86.2237 2.45451 86.3735 2.54494C86.475 2.60619 86.5871 2.64261 86.7018 2.66407L86.6895 2.66392C86.9192 2.7166 87.1612 2.71267 87.3631 2.73794C87.4826 2.75159 87.432 2.40496 87.4497 2.39902C87.7247 2.33694 87.9107 2.73221 88.1836 2.09416C88.0096 3.85211 88.3747 1.95052 88.6826 2.40427C88.7068 2.44167 88.4798 3.24001 88.3573 3.33017C88.2383 3.42135 88.1613 3.13362 87.9901 3.29323C87.9439 3.32862 87.6481 4.06687 87.6262 4.11201C87.419 4.4538 87.5345 3.22069 87.5296 3.15109C87.4817 2.40486 87.1562 3.22056 87.098 3.27581C86.9407 3.40512 86.8021 3.4182 86.6657 3.42707L86.7071 3.42757C86.5749 3.4405 86.448 3.44852 86.3223 3.53919C86.1496 3.66185 86.133 4.4744 85.9951 4.44929C85.5395 4.36563 85.3944 3.2305 84.9594 4.20824C84.8667 4.41662 84.9435 5.30616 84.6273 4.60299C84.607 4.55868 84.3768 3.916 84.2296 4.31747C84.211 4.3681 84.2069 4.62691 84.183 4.64823C84.0284 4.78606 83.9239 4.57779 83.7569 4.67317C83.585 4.76845 83.3811 4.91132 83.191 4.81921C83.0787 4.76417 82.937 4.27849 82.8875 4.15922C82.7418 3.81558 82.5585 4.36898 82.4742 3.95492C82.387 3.53871 82.5933 2.91495 82.3436 2.64126C82.3175 3.31332 82.278 4.0028 82.2464 4.67854C81.6901 4.64105 81.1478 4.4094 80.5887 4.42447C80.52 4.42703 80.5808 4.79028 80.5066 4.80233C80.1887 4.85145 79.9224 4.58661 79.5986 4.68077C79.3417 4.75487 79.0633 5.13048 78.7929 5.21988C78.658 4.44656 78.2556 4.69739 77.9778 4.61986C77.8787 4.59299 77.8905 4.3877 77.8206 4.31882C77.5623 4.06409 77.6694 4.74711 77.5942 4.85222C77.2718 5.30082 77.2789 3.7613 76.9135 3.79003C76.8945 3.79104 76.632 4.6051 76.5971 4.65533C76.3835 4.9832 76.5706 4.369 76.4431 4.30514C76.2106 4.18846 76.0404 3.98819 75.7606 4.22161C75.6782 4.29076 75.4674 4.79707 75.3172 4.39769C75.2981 4.34541 75.3161 4.07458 75.3 4.0583C75.0067 3.78626 74.9762 4.6379 74.7941 4.92212C74.6073 5.20617 74.3632 4.61185 74.3103 4.44099C74.1779 3.99909 74.4245 4.25627 74.4328 4.21342C74.5354 3.70357 74.3395 3.78703 74.1894 3.74012C74.188 2.90433 73.974 2.94935 74.0332 3.69485C74.0402 3.77628 74.1601 3.70123 74.1894 3.74012C74.1283 4.06795 74.0537 4.28015 73.9702 4.3667L74.0149 4.36734C73.8987 4.49873 73.7583 4.35164 73.6073 3.89269C73.4906 3.53326 73.598 3.11493 73.2421 3.26699C73.0794 3.33568 73.1408 3.91113 72.9958 4.06762C72.6611 4.42467 72.2362 3.88748 71.8981 3.97196C71.7754 4.00263 71.8949 4.31757 71.811 4.34938C71.5882 4.43481 71.3864 4.19862 71.1654 4.31986C71.1452 4.33125 71.195 4.66085 71.1254 4.66512C70.5929 4.70397 70.1307 4.49387 69.5821 4.48989C69.3119 4.48811 68.8402 4.67191 68.5602 4.63678C68.0823 4.57771 67.4878 4.10201 67.0787 4.2214C66.8103 4.29787 66.8717 4.62717 66.7596 4.85266C66.5439 5.28973 66.1452 4.51298 66.0908 4.39267C66.0892 4.38868 66.3197 4.30903 66.195 4.14081C66.1203 3.78876 66.0933 4.39112 66.0908 4.39267C66.055 4.31491 65.5973 4.24411 65.5057 4.30803C65.4563 4.34294 65.487 4.65505 65.4612 4.66735C64.8492 4.95266 64.2369 5.03859 63.611 4.90004C63.5999 4.89386 63.6123 4.54427 63.5863 4.5341C63.2245 4.38311 62.9992 4.8135 62.7043 5.07123C62.4114 5.32884 62.1749 5.24721 61.9899 4.64996C61.7656 4.72871 61.4416 4.46836 61.2533 4.31036C61.0653 4.15236 61.0501 4.83289 61.034 4.84659C60.5337 5.28503 60.2328 4.90073 59.7053 4.84957C59.4542 4.82407 58.9591 4.93207 58.6895 5.01184C58.4765 5.07599 58.3442 4.91924 58.1488 5.02522C58.1224 5.03938 58.1557 5.34161 58.1477 5.35343C57.9351 5.72028 58.0255 4.97788 57.9772 4.84663C57.8021 4.36936 57.6945 4.11547 57.4171 4.34781C57.3529 4.40104 57.187 5.47102 57.0701 5.53604C56.9179 5.61863 56.9673 5.23529 56.8082 5.33155C56.7946 5.33944 56.8029 5.57504 56.7033 5.56697C56.2396 5.53266 55.7337 5.40798 55.2537 5.44429C55.1883 5.44835 55.2821 5.8199 55.1878 5.83192C54.7459 5.88797 54.2591 5.88779 53.8211 5.72571C53.7132 5.68465 53.7722 5.42098 53.7467 5.34397C53.5904 4.87807 53.4101 5.56729 53.3776 5.58133C52.5958 5.93408 51.9716 5.33612 51.1756 5.65999C51.1314 5.67888 50.8253 6.42346 50.6498 5.8015C50.638 5.76013 50.463 5.12358 50.3487 5.56798C50.3416 5.59578 50.4472 5.92278 50.2844 5.89549C50.1217 5.86828 49.8724 6.09961 49.6335 5.74577C49.5585 5.63429 49.3641 5.00069 49.1785 5.52049C49.167 5.55667 48.8925 6.72582 48.742 5.93449C48.7176 5.80423 48.6976 4.96027 48.4691 5.40406C48.4257 5.49007 48.5203 5.67406 48.4014 5.79732C48.3983 5.80052 48.3952 5.80361 48.3921 5.80659C48.205 5.98049 47.942 5.78061 47.7287 6.16109C47.6921 6.22951 47.5413 6.81039 47.3784 6.38326C47.3528 6.31637 47.3809 6.03288 47.3045 6.00514C46.9446 5.87177 46.5776 6.07951 46.2121 5.90407C46.0804 5.84262 46.1209 5.38429 45.9804 5.26974C45.8396 5.15523 45.5662 5.05299 45.4398 5.26875C45.3117 5.48468 45.5058 6.20054 45.3008 6.27062C44.4156 6.57489 43.5021 6.20746 42.6061 6.21277C42.4734 6.21353 42.6022 6.46414 42.4091 6.48397C41.6926 6.55715 40.4962 6.90921 39.8276 6.42547C39.2874 6.03762 39.8752 5.6374 39.4769 5.49854C39.2836 5.43277 39.1796 6.29343 39.1389 6.32473C38.7425 6.64079 38.4034 6.30492 38.0345 6.46698C37.9585 6.50061 38.0789 6.83011 38.014 6.85497C37.7931 6.9429 37.5339 6.82323 37.3195 6.88086C37.2236 6.9075 37.2775 7.16379 37.1852 7.15628C36.9647 7.14144 36.7603 7.06 36.5147 6.84899C36.4921 6.8298 36.5738 6.48906 36.4121 6.50094C36.1516 6.521 35.7912 6.33259 35.5344 6.62721C35.4582 6.71574 35.5524 7.30514 35.2962 6.92981C35.2427 6.85152 35.1737 6.13588 35.057 6.784C35.0363 6.89176 34.8127 7.77835 34.54 7.28042C34.4679 7.14933 34.2412 6.5941 34.1513 6.70437C34.1396 6.72147 34.2549 7.02634 34.173 7.07321C33.8857 7.23259 33.5558 7.26088 33.2617 7.42172C33.183 7.46536 33.3727 7.76597 33.2538 7.82059C32.9272 7.97121 32.4828 7.97745 32.1266 7.94826C31.9945 7.93701 32.0219 7.64983 32.0066 7.62252C31.7575 7.1786 31.8097 7.83968 31.7712 7.88738C31.5244 8.17671 31.225 7.92822 30.9695 8.07104C30.8983 8.10979 31.023 8.40238 31.0142 8.43309C30.9194 8.73521 30.9088 8.16027 30.795 8.12313C30.4734 8.01796 30.1715 8.11606 29.8964 8.22455C29.7971 8.26447 29.9991 8.58885 29.9092 8.62059C29.5382 8.75643 29.1482 8.85121 28.7422 8.88034C28.5574 8.89487 28.3718 8.89575 28.1865 8.8807C28.0719 8.87075 28.0679 8.58295 28.03 8.52679C27.7671 8.13328 27.7001 8.7802 27.6643 8.84945C27.5015 9.16546 27.3509 8.94904 27.1615 9.04578C26.2159 9.52816 24.9512 9.68729 23.9922 9.83209C22.7305 10.0256 21.7277 10.0119 20.5704 10.3851C20.4974 10.4084 20.6659 10.7488 20.6042 10.7734C19.8103 11.0732 18.9639 11.144 18.1552 11.4664C18.0895 11.492 18.2763 11.8077 18.1739 11.8602C17.9625 11.9709 17.687 12.0231 17.4256 11.9751C17.3004 11.9517 17.3733 11.6199 17.2489 11.6024C16.9593 11.5608 16.6767 11.6088 16.4296 11.7319C16.3248 11.785 16.5837 12.09 16.4404 12.1318C15.4392 12.4308 14.493 12.7427 13.3546 12.558C13.2777 12.545 13.0315 11.8518 12.9222 12.0257C12.9629 12.2253 13.0241 12.4567 13.0744 12.6683C11.6538 13.1613 10.1438 13.2942 8.67191 13.6375C8.61006 13.652 8.81417 14.0002 8.69512 14.0301C8.00725 14.2036 7.35705 14.484 6.55441 14.293C6.47425 14.2747 6.33793 13.6042 6.15844 13.7574C6.12805 13.7847 5.84158 13.9528 5.79369 14.1183C5.7882 14.1428 5.92534 14.4368 5.82591 14.472C5.26155 14.6673 4.61791 14.7569 3.97974 14.7163C3.8776 14.7089 3.89517 14.3543 3.82208 14.3461C3.29369 14.2925 2.83259 14.6731 2.26742 14.4864C1.89564 14.3574 1.87144 13.7608 1.58927 13.23C1.53743 13.1582 1.323 13.1859 1.23823 12.8576C1.08831 12.0254 1.0133 11.0996 0.83198 10.2162C0.823481 10.1205 0.75407 10.1302 0.882486 10.0869C1.12572 10.0468 1.44429 9.98925 0.842633 9.75887C0.699831 9.7421 0.745067 9.58208 0.751382 9.41715C0.750418 9.30516 0.647017 8.97716 0.660673 8.83076C0.677257 8.68375 0.776114 8.95595 0.840164 8.77225C0.893553 8.58852 0.755337 8.22142 0.942004 8.13093ZM60.407 3.60473C60.2296 3.28104 60.2247 4.47768 60.4055 4.18834C60.4142 4.17293 60.4161 3.62061 60.407 3.60473ZM81.1735 3.50729C80.9643 2.97399 80.7892 3.74558 80.9376 4.15713C81.0839 4.56819 81.2387 3.669 81.1735 3.50729ZM83.5206 3.17912C83.2661 2.75741 83.185 4.45253 83.4777 4.11591C83.4946 4.09689 83.5354 3.2036 83.5206 3.17912ZM2.33294 12.8922C2.32579 12.8776 2.18365 12.8955 2.18507 12.9113C2.19836 13.2987 2.48372 13.2625 2.33294 12.8922ZM85.8521 2.79308C85.7696 2.56335 85.5323 2.82671 85.6326 3.11274C85.7135 3.34293 85.9544 3.07896 85.8521 2.79308ZM51.4121 2.55559C51.4088 2.53787 51.3078 2.52544 51.3135 2.62608C51.332 2.95019 51.4683 2.85364 51.4121 2.55559ZM89.4174 3.44605C89.0665 3.14307 89.181 1.67313 89.8206 2.16366C89.9224 2.25091 89.3575 2.42354 89.447 2.61362C89.5716 2.93887 90.2268 2.3138 90.203 2.8858C90.1834 2.97692 89.4269 3.45581 89.4156 3.44718C89.4162 3.4468 89.4168 3.44642 89.4174 3.44605ZM60.2836 2.16961C60.2799 2.15385 60.1413 2.14122 60.1383 2.15696C60.07 2.538 60.3489 2.56367 60.2836 2.16961ZM45.5557 2.0828C45.5456 2.04954 45.2265 2.03605 45.216 2.06783C45.0853 2.69734 45.7336 2.72623 45.5557 2.0828ZM69.5856 1.19983C69.7359 0.817214 69.9123 0.771691 70.036 1.25118C69.8843 1.22612 69.7371 1.22282 69.5856 1.19983Z" fill="#E99817"/>
</svg>
